<mxfile host="c65c86da-f951-49a1-b454-4b6ad15d5663" modified="2021-02-05T16:32:35.166Z" agent="5.0 (Windows NT 10.0; Win64; x64) AppleWebKit/537.36 (KHTML, like Gecko) Code/1.52.1 Chrome/83.0.4103.122 Electron/9.3.5 Safari/537.36" etag="whMSZp4vdmgvWBhGkZTg" version="13.10.0" type="embed"><diagram id="oPegE4XHTbOOZCBTk-vW" name="Page-1"><mxGraphModel dx="2408" dy="2769" grid="0" gridSize="10" guides="1" tooltips="1" connect="1" arrows="1" fold="1" page="1" pageScale="1" pageWidth="1654" pageHeight="1169" math="0" shadow="0"><root><mxCell id="0"/><mxCell id="1" parent="0"/><mxCell id="2" value="Rooms" style="shape=table;html=1;whiteSpace=wrap;startSize=30;container=1;collapsible=0;childLayout=tableLayout;fixedRows=1;rowLines=0;fontStyle=1;align=center;fillColor=#e51400;strokeColor=#B20000;fontColor=#ffffff;" parent="1" vertex="1"><mxGeometry x="258" y="-1020" width="159.5" height="391" as="geometry"/></mxCell><mxCell id="3" value="" style="shape=partialRectangle;html=1;whiteSpace=wrap;collapsible=0;dropTarget=0;pointerEvents=0;fillColor=none;top=0;left=0;bottom=1;right=0;points=[[0,0.5],[1,0.5]];portConstraint=eastwest;" parent="2" vertex="1"><mxGeometry y="30" width="159.5" height="30" as="geometry"/></mxCell><mxCell id="4" value="PK" style="shape=partialRectangle;html=1;whiteSpace=wrap;connectable=0;fillColor=none;top=0;left=0;bottom=0;right=0;overflow=hidden;" parent="3" vertex="1"><mxGeometry width="40" height="30" as="geometry"/></mxCell><mxCell id="5" value="ID (numero stanza)" style="shape=partialRectangle;html=1;whiteSpace=wrap;connectable=0;fillColor=none;top=0;left=0;bottom=0;right=0;align=left;spacingLeft=6;overflow=hidden;" parent="3" vertex="1"><mxGeometry x="40" width="120" height="30" as="geometry"/></mxCell><mxCell id="6" value="" style="shape=partialRectangle;html=1;whiteSpace=wrap;collapsible=0;dropTarget=0;pointerEvents=0;fillColor=none;top=0;left=0;bottom=0;right=0;points=[[0,0.5],[1,0.5]];portConstraint=eastwest;" parent="2" vertex="1"><mxGeometry y="60" width="159.5" height="30" as="geometry"/></mxCell><mxCell id="7" value="1" style="shape=partialRectangle;html=1;whiteSpace=wrap;connectable=0;fillColor=none;top=0;left=0;bottom=0;right=0;overflow=hidden;" parent="6" vertex="1"><mxGeometry width="40" height="30" as="geometry"/></mxCell><mxCell id="8" value="100" style="shape=partialRectangle;html=1;whiteSpace=wrap;connectable=0;fillColor=none;top=0;left=0;bottom=0;right=0;align=left;spacingLeft=6;overflow=hidden;" parent="6" vertex="1"><mxGeometry x="40" width="120" height="30" as="geometry"/></mxCell><mxCell id="9" value="" style="shape=partialRectangle;html=1;whiteSpace=wrap;collapsible=0;dropTarget=0;pointerEvents=0;fillColor=none;top=0;left=0;bottom=0;right=0;points=[[0,0.5],[1,0.5]];portConstraint=eastwest;" parent="2" vertex="1"><mxGeometry y="90" width="159.5" height="30" as="geometry"/></mxCell><mxCell id="10" value="2" style="shape=partialRectangle;html=1;whiteSpace=wrap;connectable=0;fillColor=none;top=0;left=0;bottom=0;right=0;overflow=hidden;" parent="9" vertex="1"><mxGeometry width="40" height="30" as="geometry"/></mxCell><mxCell id="11" value="101" style="shape=partialRectangle;html=1;whiteSpace=wrap;connectable=0;fillColor=none;top=0;left=0;bottom=0;right=0;align=left;spacingLeft=6;overflow=hidden;" parent="9" vertex="1"><mxGeometry x="40" width="120" height="30" as="geometry"/></mxCell><mxCell id="13" value="" style="shape=partialRectangle;html=1;whiteSpace=wrap;collapsible=0;dropTarget=0;pointerEvents=0;fillColor=none;top=0;left=0;bottom=0;right=0;points=[[0,0.5],[1,0.5]];portConstraint=eastwest;" parent="2" vertex="1"><mxGeometry y="120" width="159.5" height="30" as="geometry"/></mxCell><mxCell id="14" value="3" style="shape=partialRectangle;html=1;whiteSpace=wrap;connectable=0;fillColor=none;top=0;left=0;bottom=0;right=0;overflow=hidden;" parent="13" vertex="1"><mxGeometry width="40" height="30" as="geometry"/></mxCell><mxCell id="15" value="102" style="shape=partialRectangle;html=1;whiteSpace=wrap;connectable=0;fillColor=none;top=0;left=0;bottom=0;right=0;align=left;spacingLeft=6;overflow=hidden;" parent="13" vertex="1"><mxGeometry x="40" width="120" height="30" as="geometry"/></mxCell><mxCell id="16" value="" style="shape=partialRectangle;html=1;whiteSpace=wrap;collapsible=0;dropTarget=0;pointerEvents=0;fillColor=none;top=0;left=0;bottom=0;right=0;points=[[0,0.5],[1,0.5]];portConstraint=eastwest;" parent="2" vertex="1"><mxGeometry y="150" width="159.5" height="30" as="geometry"/></mxCell><mxCell id="17" value="4" style="shape=partialRectangle;html=1;whiteSpace=wrap;connectable=0;fillColor=none;top=0;left=0;bottom=0;right=0;overflow=hidden;" parent="16" vertex="1"><mxGeometry width="40" height="30" as="geometry"/></mxCell><mxCell id="18" value="..." style="shape=partialRectangle;html=1;whiteSpace=wrap;connectable=0;fillColor=none;top=0;left=0;bottom=0;right=0;align=left;spacingLeft=6;overflow=hidden;" parent="16" vertex="1"><mxGeometry x="40" width="120" height="30" as="geometry"/></mxCell><mxCell id="19" value="" style="shape=partialRectangle;html=1;whiteSpace=wrap;collapsible=0;dropTarget=0;pointerEvents=0;fillColor=none;top=0;left=0;bottom=0;right=0;points=[[0,0.5],[1,0.5]];portConstraint=eastwest;" parent="2" vertex="1"><mxGeometry y="180" width="159.5" height="30" as="geometry"/></mxCell><mxCell id="20" value="5" style="shape=partialRectangle;html=1;whiteSpace=wrap;connectable=0;fillColor=none;top=0;left=0;bottom=0;right=0;overflow=hidden;" parent="19" vertex="1"><mxGeometry width="40" height="30" as="geometry"/></mxCell><mxCell id="21" value="200" style="shape=partialRectangle;html=1;whiteSpace=wrap;connectable=0;fillColor=none;top=0;left=0;bottom=0;right=0;align=left;spacingLeft=6;overflow=hidden;" parent="19" vertex="1"><mxGeometry x="40" width="120" height="30" as="geometry"/></mxCell><mxCell id="22" value="" style="shape=partialRectangle;html=1;whiteSpace=wrap;collapsible=0;dropTarget=0;pointerEvents=0;fillColor=none;top=0;left=0;bottom=0;right=0;points=[[0,0.5],[1,0.5]];portConstraint=eastwest;" parent="2" vertex="1"><mxGeometry y="210" width="159.5" height="30" as="geometry"/></mxCell><mxCell id="23" value="6" style="shape=partialRectangle;html=1;whiteSpace=wrap;connectable=0;fillColor=none;top=0;left=0;bottom=0;right=0;overflow=hidden;" parent="22" vertex="1"><mxGeometry width="40" height="30" as="geometry"/></mxCell><mxCell id="24" value="201" style="shape=partialRectangle;html=1;whiteSpace=wrap;connectable=0;fillColor=none;top=0;left=0;bottom=0;right=0;align=left;spacingLeft=6;overflow=hidden;" parent="22" vertex="1"><mxGeometry x="40" width="120" height="30" as="geometry"/></mxCell><mxCell id="25" value="" style="shape=partialRectangle;html=1;whiteSpace=wrap;collapsible=0;dropTarget=0;pointerEvents=0;fillColor=none;top=0;left=0;bottom=0;right=0;points=[[0,0.5],[1,0.5]];portConstraint=eastwest;" parent="2" vertex="1"><mxGeometry y="240" width="159.5" height="30" as="geometry"/></mxCell><mxCell id="26" value="7" style="shape=partialRectangle;html=1;whiteSpace=wrap;connectable=0;fillColor=none;top=0;left=0;bottom=0;right=0;overflow=hidden;" parent="25" vertex="1"><mxGeometry width="40" height="30" as="geometry"/></mxCell><mxCell id="27" value="202" style="shape=partialRectangle;html=1;whiteSpace=wrap;connectable=0;fillColor=none;top=0;left=0;bottom=0;right=0;align=left;spacingLeft=6;overflow=hidden;" parent="25" vertex="1"><mxGeometry x="40" width="120" height="30" as="geometry"/></mxCell><mxCell id="28" value="" style="shape=partialRectangle;html=1;whiteSpace=wrap;collapsible=0;dropTarget=0;pointerEvents=0;fillColor=none;top=0;left=0;bottom=0;right=0;points=[[0,0.5],[1,0.5]];portConstraint=eastwest;" parent="2" vertex="1"><mxGeometry y="270" width="159.5" height="30" as="geometry"/></mxCell><mxCell id="29" value="8" style="shape=partialRectangle;html=1;whiteSpace=wrap;connectable=0;fillColor=none;top=0;left=0;bottom=0;right=0;overflow=hidden;" parent="28" vertex="1"><mxGeometry width="40" height="30" as="geometry"/></mxCell><mxCell id="30" value="..." style="shape=partialRectangle;html=1;whiteSpace=wrap;connectable=0;fillColor=none;top=0;left=0;bottom=0;right=0;align=left;spacingLeft=6;overflow=hidden;" parent="28" vertex="1"><mxGeometry x="40" width="120" height="30" as="geometry"/></mxCell><mxCell id="31" value="" style="shape=partialRectangle;html=1;whiteSpace=wrap;collapsible=0;dropTarget=0;pointerEvents=0;fillColor=none;top=0;left=0;bottom=0;right=0;points=[[0,0.5],[1,0.5]];portConstraint=eastwest;" parent="2" vertex="1"><mxGeometry y="300" width="159.5" height="30" as="geometry"/></mxCell><mxCell id="32" value="9" style="shape=partialRectangle;html=1;whiteSpace=wrap;connectable=0;fillColor=none;top=0;left=0;bottom=0;right=0;overflow=hidden;" parent="31" vertex="1"><mxGeometry width="40" height="30" as="geometry"/></mxCell><mxCell id="33" value="301" style="shape=partialRectangle;html=1;whiteSpace=wrap;connectable=0;fillColor=none;top=0;left=0;bottom=0;right=0;align=left;spacingLeft=6;overflow=hidden;" parent="31" vertex="1"><mxGeometry x="40" width="120" height="30" as="geometry"/></mxCell><mxCell id="34" value="" style="shape=partialRectangle;html=1;whiteSpace=wrap;collapsible=0;dropTarget=0;pointerEvents=0;fillColor=none;top=0;left=0;bottom=0;right=0;points=[[0,0.5],[1,0.5]];portConstraint=eastwest;" parent="2" vertex="1"><mxGeometry y="330" width="159.5" height="30" as="geometry"/></mxCell><mxCell id="35" value="10" style="shape=partialRectangle;html=1;whiteSpace=wrap;connectable=0;fillColor=none;top=0;left=0;bottom=0;right=0;overflow=hidden;" parent="34" vertex="1"><mxGeometry width="40" height="30" as="geometry"/></mxCell><mxCell id="36" value="302" style="shape=partialRectangle;html=1;whiteSpace=wrap;connectable=0;fillColor=none;top=0;left=0;bottom=0;right=0;align=left;spacingLeft=6;overflow=hidden;" parent="34" vertex="1"><mxGeometry x="40" width="120" height="30" as="geometry"/></mxCell><mxCell id="37" value="" style="shape=partialRectangle;html=1;whiteSpace=wrap;collapsible=0;dropTarget=0;pointerEvents=0;fillColor=none;top=0;left=0;bottom=0;right=0;points=[[0,0.5],[1,0.5]];portConstraint=eastwest;" parent="2" vertex="1"><mxGeometry y="360" width="159.5" height="30" as="geometry"/></mxCell><mxCell id="38" value="11" style="shape=partialRectangle;html=1;whiteSpace=wrap;connectable=0;fillColor=none;top=0;left=0;bottom=0;right=0;overflow=hidden;" parent="37" vertex="1"><mxGeometry width="40" height="30" as="geometry"/></mxCell><mxCell id="39" value="303" style="shape=partialRectangle;html=1;whiteSpace=wrap;connectable=0;fillColor=none;top=0;left=0;bottom=0;right=0;align=left;spacingLeft=6;overflow=hidden;" parent="37" vertex="1"><mxGeometry x="40" width="120" height="30" as="geometry"/></mxCell><mxCell id="12" value="Hotel Reservations" style="text;strokeColor=none;fillColor=none;html=1;fontSize=24;fontStyle=1;verticalAlign=middle;align=center;" parent="1" vertex="1"><mxGeometry x="745.38" y="-1143" width="236" height="40" as="geometry"/></mxCell><mxCell id="40" value="Room_details" style="shape=table;html=1;whiteSpace=wrap;startSize=30;container=1;collapsible=0;childLayout=tableLayout;fixedRows=1;rowLines=0;fontStyle=1;align=center;fillColor=#fa6800;strokeColor=#C73500;fontColor=#ffffff;" parent="1" vertex="1"><mxGeometry x="771" y="-1020" width="192" height="300" as="geometry"/></mxCell><mxCell id="41" value="" style="shape=partialRectangle;html=1;whiteSpace=wrap;collapsible=0;dropTarget=0;pointerEvents=0;fillColor=none;top=0;left=0;bottom=1;right=0;points=[[0,0.5],[1,0.5]];portConstraint=eastwest;" parent="40" vertex="1"><mxGeometry y="30" width="192" height="30" as="geometry"/></mxCell><mxCell id="42" value="PK" style="shape=partialRectangle;html=1;whiteSpace=wrap;connectable=0;fillColor=none;top=0;left=0;bottom=0;right=0;overflow=hidden;" parent="41" vertex="1"><mxGeometry width="54" height="30" as="geometry"/></mxCell><mxCell id="43" value="ID (tipologia)" style="shape=partialRectangle;html=1;whiteSpace=wrap;connectable=0;fillColor=none;top=0;left=0;bottom=0;right=0;align=left;spacingLeft=6;overflow=hidden;" parent="41" vertex="1"><mxGeometry x="54" width="138" height="30" as="geometry"/></mxCell><mxCell id="44" value="" style="shape=partialRectangle;html=1;whiteSpace=wrap;collapsible=0;dropTarget=0;pointerEvents=0;fillColor=none;top=0;left=0;bottom=0;right=0;points=[[0,0.5],[1,0.5]];portConstraint=eastwest;" parent="40" vertex="1"><mxGeometry y="60" width="192" height="30" as="geometry"/></mxCell><mxCell id="45" value="1" style="shape=partialRectangle;html=1;whiteSpace=wrap;connectable=0;fillColor=none;top=0;left=0;bottom=0;right=0;overflow=hidden;" parent="44" vertex="1"><mxGeometry width="54" height="30" as="geometry"/></mxCell><mxCell id="46" value="Singola" style="shape=partialRectangle;html=1;whiteSpace=wrap;connectable=0;fillColor=none;top=0;left=0;bottom=0;right=0;align=left;spacingLeft=6;overflow=hidden;" parent="44" vertex="1"><mxGeometry x="54" width="138" height="30" as="geometry"/></mxCell><mxCell id="47" value="" style="shape=partialRectangle;html=1;whiteSpace=wrap;collapsible=0;dropTarget=0;pointerEvents=0;fillColor=none;top=0;left=0;bottom=0;right=0;points=[[0,0.5],[1,0.5]];portConstraint=eastwest;" parent="40" vertex="1"><mxGeometry y="90" width="192" height="30" as="geometry"/></mxCell><mxCell id="48" value="2" style="shape=partialRectangle;html=1;whiteSpace=wrap;connectable=0;fillColor=none;top=0;left=0;bottom=0;right=0;overflow=hidden;" parent="47" vertex="1"><mxGeometry width="54" height="30" as="geometry"/></mxCell><mxCell id="49" value="Doppia uso singola" style="shape=partialRectangle;html=1;whiteSpace=wrap;connectable=0;fillColor=none;top=0;left=0;bottom=0;right=0;align=left;spacingLeft=6;overflow=hidden;" parent="47" vertex="1"><mxGeometry x="54" width="138" height="30" as="geometry"/></mxCell><mxCell id="50" value="" style="shape=partialRectangle;html=1;whiteSpace=wrap;collapsible=0;dropTarget=0;pointerEvents=0;fillColor=none;top=0;left=0;bottom=0;right=0;points=[[0,0.5],[1,0.5]];portConstraint=eastwest;" parent="40" vertex="1"><mxGeometry y="120" width="192" height="30" as="geometry"/></mxCell><mxCell id="51" value="3" style="shape=partialRectangle;html=1;whiteSpace=wrap;connectable=0;fillColor=none;top=0;left=0;bottom=0;right=0;overflow=hidden;" parent="50" vertex="1"><mxGeometry width="54" height="30" as="geometry"/></mxCell><mxCell id="52" value="Doppia" style="shape=partialRectangle;html=1;whiteSpace=wrap;connectable=0;fillColor=none;top=0;left=0;bottom=0;right=0;align=left;spacingLeft=6;overflow=hidden;" parent="50" vertex="1"><mxGeometry x="54" width="138" height="30" as="geometry"/></mxCell><mxCell id="53" value="" style="shape=partialRectangle;html=1;whiteSpace=wrap;collapsible=0;dropTarget=0;pointerEvents=0;fillColor=none;top=0;left=0;bottom=0;right=0;points=[[0,0.5],[1,0.5]];portConstraint=eastwest;" parent="40" vertex="1"><mxGeometry y="150" width="192" height="30" as="geometry"/></mxCell><mxCell id="54" value="4" style="shape=partialRectangle;html=1;whiteSpace=wrap;connectable=0;fillColor=none;top=0;left=0;bottom=0;right=0;overflow=hidden;" parent="53" vertex="1"><mxGeometry width="54" height="30" as="geometry"/></mxCell><mxCell id="55" value="Matrimoniale" style="shape=partialRectangle;html=1;whiteSpace=wrap;connectable=0;fillColor=none;top=0;left=0;bottom=0;right=0;align=left;spacingLeft=6;overflow=hidden;" parent="53" vertex="1"><mxGeometry x="54" width="138" height="30" as="geometry"/></mxCell><mxCell id="56" value="" style="shape=partialRectangle;html=1;whiteSpace=wrap;collapsible=0;dropTarget=0;pointerEvents=0;fillColor=none;top=0;left=0;bottom=0;right=0;points=[[0,0.5],[1,0.5]];portConstraint=eastwest;" parent="40" vertex="1"><mxGeometry y="180" width="192" height="30" as="geometry"/></mxCell><mxCell id="57" value="5" style="shape=partialRectangle;html=1;whiteSpace=wrap;connectable=0;fillColor=none;top=0;left=0;bottom=0;right=0;overflow=hidden;" parent="56" vertex="1"><mxGeometry width="54" height="30" as="geometry"/></mxCell><mxCell id="58" value="Tripla" style="shape=partialRectangle;html=1;whiteSpace=wrap;connectable=0;fillColor=none;top=0;left=0;bottom=0;right=0;align=left;spacingLeft=6;overflow=hidden;" parent="56" vertex="1"><mxGeometry x="54" width="138" height="30" as="geometry"/></mxCell><mxCell id="59" value="" style="shape=partialRectangle;html=1;whiteSpace=wrap;collapsible=0;dropTarget=0;pointerEvents=0;fillColor=none;top=0;left=0;bottom=0;right=0;points=[[0,0.5],[1,0.5]];portConstraint=eastwest;" parent="40" vertex="1"><mxGeometry y="210" width="192" height="30" as="geometry"/></mxCell><mxCell id="60" value="6" style="shape=partialRectangle;html=1;whiteSpace=wrap;connectable=0;fillColor=none;top=0;left=0;bottom=0;right=0;overflow=hidden;" parent="59" vertex="1"><mxGeometry width="54" height="30" as="geometry"/></mxCell><mxCell id="61" value="Quadrupla" style="shape=partialRectangle;html=1;whiteSpace=wrap;connectable=0;fillColor=none;top=0;left=0;bottom=0;right=0;align=left;spacingLeft=6;overflow=hidden;" parent="59" vertex="1"><mxGeometry x="54" width="138" height="30" as="geometry"/></mxCell><mxCell id="62" value="" style="shape=partialRectangle;html=1;whiteSpace=wrap;collapsible=0;dropTarget=0;pointerEvents=0;fillColor=none;top=0;left=0;bottom=0;right=0;points=[[0,0.5],[1,0.5]];portConstraint=eastwest;" parent="40" vertex="1"><mxGeometry y="240" width="192" height="30" as="geometry"/></mxCell><mxCell id="63" value="7" style="shape=partialRectangle;html=1;whiteSpace=wrap;connectable=0;fillColor=none;top=0;left=0;bottom=0;right=0;overflow=hidden;" parent="62" vertex="1"><mxGeometry width="54" height="30" as="geometry"/></mxCell><mxCell id="64" value="Dormitorio" style="shape=partialRectangle;html=1;whiteSpace=wrap;connectable=0;fillColor=none;top=0;left=0;bottom=0;right=0;align=left;spacingLeft=6;overflow=hidden;" parent="62" vertex="1"><mxGeometry x="54" width="138" height="30" as="geometry"/></mxCell><mxCell id="65" value="" style="shape=partialRectangle;html=1;whiteSpace=wrap;collapsible=0;dropTarget=0;pointerEvents=0;fillColor=none;top=0;left=0;bottom=0;right=0;points=[[0,0.5],[1,0.5]];portConstraint=eastwest;" parent="40" vertex="1"><mxGeometry y="270" width="192" height="30" as="geometry"/></mxCell><mxCell id="66" value="8" style="shape=partialRectangle;html=1;whiteSpace=wrap;connectable=0;fillColor=none;top=0;left=0;bottom=0;right=0;overflow=hidden;" parent="65" vertex="1"><mxGeometry width="54" height="30" as="geometry"/></mxCell><mxCell id="67" value="Suite" style="shape=partialRectangle;html=1;whiteSpace=wrap;connectable=0;fillColor=none;top=0;left=0;bottom=0;right=0;align=left;spacingLeft=6;overflow=hidden;" parent="65" vertex="1"><mxGeometry x="54" width="138" height="30" as="geometry"/></mxCell><mxCell id="83" value="Relationship" style="shape=rhombus;perimeter=rhombusPerimeter;whiteSpace=wrap;html=1;align=center;" parent="1" vertex="1"><mxGeometry x="535" y="-915" width="120" height="60" as="geometry"/></mxCell><mxCell id="84" value="1" style="edgeStyle=orthogonalEdgeStyle;rounded=0;orthogonalLoop=1;jettySize=auto;html=1;exitX=1;exitY=0.5;exitDx=0;exitDy=0;entryX=0;entryY=0.5;entryDx=0;entryDy=0;endArrow=none;endFill=0;fontSize=21;" parent="1" source="13" target="83" edge="1"><mxGeometry relative="1" as="geometry"/></mxCell><mxCell id="85" value="1" style="edgeStyle=orthogonalEdgeStyle;rounded=0;orthogonalLoop=1;jettySize=auto;html=1;exitX=0;exitY=0.5;exitDx=0;exitDy=0;entryX=1;entryY=0.5;entryDx=0;entryDy=0;endArrow=none;endFill=0;fontSize=20;" parent="1" source="50" target="83" edge="1"><mxGeometry relative="1" as="geometry"/></mxCell><mxCell id="170" value="*" style="edgeStyle=orthogonalEdgeStyle;curved=0;rounded=1;sketch=0;orthogonalLoop=1;jettySize=auto;html=1;exitX=0.5;exitY=1;exitDx=0;exitDy=0;entryX=0.5;entryY=0;entryDx=0;entryDy=0;endArrow=none;endFill=0;fontSize=20;" parent="1" source="86" target="169" edge="1"><mxGeometry relative="1" as="geometry"/></mxCell><mxCell id="86" value="Bookings" style="shape=table;startSize=30;container=1;collapsible=1;childLayout=tableLayout;fixedRows=1;rowLines=0;fontStyle=1;align=center;resizeLast=1;fillColor=#f0a30a;strokeColor=#BD7000;fontColor=#ffffff;" parent="1" vertex="1"><mxGeometry x="771" y="-655" width="184.75" height="190" as="geometry"><mxRectangle x="561" y="427" width="82" height="30" as="alternateBounds"/></mxGeometry></mxCell><mxCell id="87" value="" style="shape=partialRectangle;collapsible=0;dropTarget=0;pointerEvents=0;fillColor=none;top=0;left=0;bottom=1;right=0;points=[[0,0.5],[1,0.5]];portConstraint=eastwest;" parent="86" vertex="1"><mxGeometry y="30" width="184.75" height="30" as="geometry"/></mxCell><mxCell id="88" value="PK" style="shape=partialRectangle;connectable=0;fillColor=none;top=0;left=0;bottom=0;right=0;fontStyle=1;overflow=hidden;" parent="87" vertex="1"><mxGeometry width="30" height="30" as="geometry"/></mxCell><mxCell id="89" value="ID (codice prenotazione)" style="shape=partialRectangle;connectable=0;fillColor=none;top=0;left=0;bottom=0;right=0;align=left;spacingLeft=6;fontStyle=5;overflow=hidden;" parent="87" vertex="1"><mxGeometry x="30" width="154.75" height="30" as="geometry"/></mxCell><mxCell id="90" value="" style="shape=partialRectangle;collapsible=0;dropTarget=0;pointerEvents=0;fillColor=none;top=0;left=0;bottom=0;right=0;points=[[0,0.5],[1,0.5]];portConstraint=eastwest;" parent="86" vertex="1"><mxGeometry y="60" width="184.75" height="30" as="geometry"/></mxCell><mxCell id="91" value="1" style="shape=partialRectangle;connectable=0;fillColor=none;top=0;left=0;bottom=0;right=0;editable=1;overflow=hidden;" parent="90" vertex="1"><mxGeometry width="30" height="30" as="geometry"/></mxCell><mxCell id="92" value="P0001" style="shape=partialRectangle;connectable=0;fillColor=none;top=0;left=0;bottom=0;right=0;align=left;spacingLeft=6;overflow=hidden;" parent="90" vertex="1"><mxGeometry x="30" width="154.75" height="30" as="geometry"/></mxCell><mxCell id="93" value="" style="shape=partialRectangle;collapsible=0;dropTarget=0;pointerEvents=0;fillColor=none;top=0;left=0;bottom=0;right=0;points=[[0,0.5],[1,0.5]];portConstraint=eastwest;" parent="86" vertex="1"><mxGeometry y="90" width="184.75" height="30" as="geometry"/></mxCell><mxCell id="94" value="2" style="shape=partialRectangle;connectable=0;fillColor=none;top=0;left=0;bottom=0;right=0;editable=1;overflow=hidden;" parent="93" vertex="1"><mxGeometry width="30" height="30" as="geometry"/></mxCell><mxCell id="95" value="P0002" style="shape=partialRectangle;connectable=0;fillColor=none;top=0;left=0;bottom=0;right=0;align=left;spacingLeft=6;overflow=hidden;" parent="93" vertex="1"><mxGeometry x="30" width="154.75" height="30" as="geometry"/></mxCell><mxCell id="96" value="" style="shape=partialRectangle;collapsible=0;dropTarget=0;pointerEvents=0;fillColor=none;top=0;left=0;bottom=0;right=0;points=[[0,0.5],[1,0.5]];portConstraint=eastwest;" parent="86" vertex="1"><mxGeometry y="120" width="184.75" height="30" as="geometry"/></mxCell><mxCell id="97" value="3" style="shape=partialRectangle;connectable=0;fillColor=none;top=0;left=0;bottom=0;right=0;editable=1;overflow=hidden;" parent="96" vertex="1"><mxGeometry width="30" height="30" as="geometry"/></mxCell><mxCell id="98" value="P0003" style="shape=partialRectangle;connectable=0;fillColor=none;top=0;left=0;bottom=0;right=0;align=left;spacingLeft=6;overflow=hidden;" parent="96" vertex="1"><mxGeometry x="30" width="154.75" height="30" as="geometry"/></mxCell><mxCell id="109" value="" style="shape=partialRectangle;collapsible=0;dropTarget=0;pointerEvents=0;fillColor=none;top=0;left=0;bottom=0;right=0;points=[[0,0.5],[1,0.5]];portConstraint=eastwest;" parent="86" vertex="1"><mxGeometry y="150" width="184.75" height="30" as="geometry"/></mxCell><mxCell id="110" value="4" style="shape=partialRectangle;connectable=0;fillColor=none;top=0;left=0;bottom=0;right=0;editable=1;overflow=hidden;" parent="109" vertex="1"><mxGeometry width="30" height="30" as="geometry"/></mxCell><mxCell id="111" value="P0004" style="shape=partialRectangle;connectable=0;fillColor=none;top=0;left=0;bottom=0;right=0;align=left;spacingLeft=6;overflow=hidden;" parent="109" vertex="1"><mxGeometry x="30" width="154.75" height="30" as="geometry"/></mxCell><mxCell id="171" value="*" style="edgeStyle=orthogonalEdgeStyle;curved=0;rounded=1;sketch=0;orthogonalLoop=1;jettySize=auto;html=1;exitX=0.5;exitY=0;exitDx=0;exitDy=0;entryX=0.5;entryY=1;entryDx=0;entryDy=0;endArrow=none;endFill=0;fontSize=20;" parent="1" source="112" target="169" edge="1"><mxGeometry relative="1" as="geometry"/></mxCell><mxCell id="112" value="Calendar" style="shape=table;html=1;whiteSpace=wrap;startSize=30;container=1;collapsible=0;childLayout=tableLayout;fontStyle=1;align=center;rounded=0;sketch=0;" parent="1" vertex="1"><mxGeometry x="740.38" y="-251" width="246" height="190" as="geometry"/></mxCell><mxCell id="113" value="" style="shape=partialRectangle;html=1;whiteSpace=wrap;collapsible=0;dropTarget=0;pointerEvents=0;fillColor=none;top=0;left=0;bottom=0;right=0;points=[[0,0.5],[1,0.5]];portConstraint=eastwest;" parent="112" vertex="1"><mxGeometry y="30" width="246" height="40" as="geometry"/></mxCell><mxCell id="114" value="Gen" style="shape=partialRectangle;html=1;whiteSpace=wrap;connectable=0;fillColor=#fa6800;top=0;left=0;bottom=0;right=0;overflow=hidden;strokeColor=#C73500;fontColor=#ffffff;" parent="113" vertex="1"><mxGeometry width="82" height="40" as="geometry"/></mxCell><mxCell id="115" value="Feb" style="shape=partialRectangle;html=1;whiteSpace=wrap;connectable=0;fillColor=#e3c800;top=0;left=0;bottom=0;right=0;overflow=hidden;strokeColor=#B09500;fontColor=#ffffff;" parent="113" vertex="1"><mxGeometry x="82" width="82" height="40" as="geometry"/></mxCell><mxCell id="116" value="Mar" style="shape=partialRectangle;html=1;whiteSpace=wrap;connectable=0;fillColor=#fa6800;top=0;left=0;bottom=0;right=0;overflow=hidden;strokeColor=#C73500;fontColor=#ffffff;" parent="113" vertex="1"><mxGeometry x="164" width="82" height="40" as="geometry"/></mxCell><mxCell id="117" value="" style="shape=partialRectangle;html=1;whiteSpace=wrap;collapsible=0;dropTarget=0;pointerEvents=0;fillColor=none;top=0;left=0;bottom=0;right=0;points=[[0,0.5],[1,0.5]];portConstraint=eastwest;" parent="112" vertex="1"><mxGeometry y="70" width="246" height="40" as="geometry"/></mxCell><mxCell id="118" value="Apr" style="shape=partialRectangle;html=1;whiteSpace=wrap;connectable=0;fillColor=#fa6800;top=0;left=0;bottom=0;right=0;overflow=hidden;strokeColor=#C73500;fontColor=#ffffff;" parent="117" vertex="1"><mxGeometry width="82" height="40" as="geometry"/></mxCell><mxCell id="119" value="Mag" style="shape=partialRectangle;html=1;whiteSpace=wrap;connectable=0;fillColor=#fa6800;top=0;left=0;bottom=0;right=0;overflow=hidden;strokeColor=#C73500;fontColor=#ffffff;" parent="117" vertex="1"><mxGeometry x="82" width="82" height="40" as="geometry"/></mxCell><mxCell id="120" value="Giu" style="shape=partialRectangle;html=1;whiteSpace=wrap;connectable=0;fillColor=#e51400;top=0;left=0;bottom=0;right=0;overflow=hidden;strokeColor=#B20000;fontColor=#ffffff;" parent="117" vertex="1"><mxGeometry x="164" width="82" height="40" as="geometry"/></mxCell><mxCell id="121" value="" style="shape=partialRectangle;html=1;whiteSpace=wrap;collapsible=0;dropTarget=0;pointerEvents=0;fillColor=none;top=0;left=0;bottom=0;right=0;points=[[0,0.5],[1,0.5]];portConstraint=eastwest;" parent="112" vertex="1"><mxGeometry y="110" width="246" height="40" as="geometry"/></mxCell><mxCell id="122" value="Lug" style="shape=partialRectangle;html=1;whiteSpace=wrap;connectable=0;fillColor=#e51400;top=0;left=0;bottom=0;right=0;overflow=hidden;strokeColor=#B20000;fontColor=#ffffff;" parent="121" vertex="1"><mxGeometry width="82" height="40" as="geometry"/></mxCell><mxCell id="123" value="Ago" style="shape=partialRectangle;html=1;whiteSpace=wrap;connectable=0;fillColor=#e51400;top=0;left=0;bottom=0;right=0;overflow=hidden;strokeColor=#B20000;fontColor=#ffffff;" parent="121" vertex="1"><mxGeometry x="82" width="82" height="40" as="geometry"/></mxCell><mxCell id="124" value="Sep" style="shape=partialRectangle;html=1;whiteSpace=wrap;connectable=0;fillColor=#e3c800;top=0;left=0;bottom=0;right=0;overflow=hidden;strokeColor=#B09500;fontColor=#ffffff;" parent="121" vertex="1"><mxGeometry x="164" width="82" height="40" as="geometry"/></mxCell><mxCell id="127" value="" style="shape=partialRectangle;html=1;whiteSpace=wrap;collapsible=0;dropTarget=0;pointerEvents=0;fillColor=none;top=0;left=0;bottom=0;right=0;points=[[0,0.5],[1,0.5]];portConstraint=eastwest;" parent="112" vertex="1"><mxGeometry y="150" width="246" height="40" as="geometry"/></mxCell><mxCell id="128" value="Ott" style="shape=partialRectangle;html=1;whiteSpace=wrap;connectable=0;fillColor=#e3c800;top=0;left=0;bottom=0;right=0;overflow=hidden;strokeColor=#B09500;fontColor=#ffffff;" parent="127" vertex="1"><mxGeometry width="82" height="40" as="geometry"/></mxCell><mxCell id="129" value="Nov" style="shape=partialRectangle;html=1;whiteSpace=wrap;connectable=0;fillColor=#e3c800;top=0;left=0;bottom=0;right=0;overflow=hidden;strokeColor=#B09500;fontColor=#ffffff;" parent="127" vertex="1"><mxGeometry x="82" width="82" height="40" as="geometry"/></mxCell><mxCell id="130" value="Dic" style="shape=partialRectangle;html=1;whiteSpace=wrap;connectable=0;fillColor=#e51400;top=0;left=0;bottom=0;right=0;overflow=hidden;strokeColor=#B20000;fontColor=#ffffff;" parent="127" vertex="1"><mxGeometry x="164" width="82" height="40" as="geometry"/></mxCell><mxCell id="131" value="Relationship" style="shape=rhombus;perimeter=rhombusPerimeter;whiteSpace=wrap;html=1;align=center;" parent="1" vertex="1"><mxGeometry x="545" y="-641" width="120" height="60" as="geometry"/></mxCell><mxCell id="132" value="*" style="edgeStyle=orthogonalEdgeStyle;curved=0;rounded=1;sketch=0;orthogonalLoop=1;jettySize=auto;html=1;exitX=0;exitY=0.5;exitDx=0;exitDy=0;entryX=1;entryY=0.5;entryDx=0;entryDy=0;fontSize=20;" parent="1" source="87" target="131" edge="1"><mxGeometry relative="1" as="geometry"><mxPoint x="782" y="-551" as="targetPoint"/></mxGeometry></mxCell><mxCell id="133" value="1" style="edgeStyle=orthogonalEdgeStyle;curved=0;rounded=1;sketch=0;orthogonalLoop=1;jettySize=auto;html=1;exitX=1;exitY=0.5;exitDx=0;exitDy=0;entryX=0;entryY=0.5;entryDx=0;entryDy=0;fontSize=20;" parent="1" source="19" target="131" edge="1"><mxGeometry relative="1" as="geometry"/></mxCell><mxCell id="144" value="Guests" style="shape=table;html=1;whiteSpace=wrap;startSize=30;container=1;collapsible=0;childLayout=tableLayout;fontStyle=1;align=center;rounded=0;sketch=0;fillColor=#1ba1e2;strokeColor=#006EAF;fontColor=#ffffff;" parent="1" vertex="1"><mxGeometry x="258" y="-557" width="215.75" height="110" as="geometry"/></mxCell><mxCell id="145" value="" style="shape=partialRectangle;html=1;whiteSpace=wrap;collapsible=0;dropTarget=0;pointerEvents=0;fillColor=none;top=0;left=0;bottom=0;right=0;points=[[0,0.5],[1,0.5]];portConstraint=eastwest;" parent="144" vertex="1"><mxGeometry y="30" width="215.75" height="20" as="geometry"/></mxCell><mxCell id="146" value="PK" style="shape=partialRectangle;html=1;whiteSpace=wrap;connectable=0;fillColor=none;top=0;left=0;bottom=0;right=0;overflow=hidden;" parent="145" vertex="1"><mxGeometry width="60" height="20" as="geometry"/></mxCell><mxCell id="147" value="Nome" style="shape=partialRectangle;html=1;whiteSpace=wrap;connectable=0;fillColor=none;top=0;left=0;bottom=0;right=0;overflow=hidden;" parent="145" vertex="1"><mxGeometry x="60" width="60" height="20" as="geometry"/></mxCell><mxCell id="148" value="Cognome" style="shape=partialRectangle;html=1;whiteSpace=wrap;connectable=0;fillColor=none;top=0;left=0;bottom=0;right=0;overflow=hidden;" parent="145" vertex="1"><mxGeometry x="120" width="96" height="20" as="geometry"/></mxCell><mxCell id="157" value="" style="shape=partialRectangle;html=1;whiteSpace=wrap;collapsible=0;dropTarget=0;pointerEvents=0;fillColor=none;top=0;left=0;bottom=0;right=0;points=[[0,0.5],[1,0.5]];portConstraint=eastwest;" parent="144" vertex="1"><mxGeometry y="50" width="215.75" height="20" as="geometry"/></mxCell><mxCell id="158" value="1" style="shape=partialRectangle;html=1;whiteSpace=wrap;connectable=0;fillColor=none;top=0;left=0;bottom=0;right=0;overflow=hidden;" parent="157" vertex="1"><mxGeometry width="60" height="20" as="geometry"/></mxCell><mxCell id="159" value="Marco" style="shape=partialRectangle;html=1;whiteSpace=wrap;connectable=0;fillColor=none;top=0;left=0;bottom=0;right=0;overflow=hidden;" parent="157" vertex="1"><mxGeometry x="60" width="60" height="20" as="geometry"/></mxCell><mxCell id="160" value="Rossi" style="shape=partialRectangle;html=1;whiteSpace=wrap;connectable=0;fillColor=none;top=0;left=0;bottom=0;right=0;overflow=hidden;" parent="157" vertex="1"><mxGeometry x="120" width="96" height="20" as="geometry"/></mxCell><mxCell id="149" value="" style="shape=partialRectangle;html=1;whiteSpace=wrap;collapsible=0;dropTarget=0;pointerEvents=0;fillColor=none;top=0;left=0;bottom=0;right=0;points=[[0,0.5],[1,0.5]];portConstraint=eastwest;" parent="144" vertex="1"><mxGeometry y="70" width="215.75" height="20" as="geometry"/></mxCell><mxCell id="150" value="2" style="shape=partialRectangle;html=1;whiteSpace=wrap;connectable=0;fillColor=none;top=0;left=0;bottom=0;right=0;overflow=hidden;" parent="149" vertex="1"><mxGeometry width="60" height="20" as="geometry"/></mxCell><mxCell id="151" value="Luca" style="shape=partialRectangle;html=1;whiteSpace=wrap;connectable=0;fillColor=none;top=0;left=0;bottom=0;right=0;overflow=hidden;" parent="149" vertex="1"><mxGeometry x="60" width="60" height="20" as="geometry"/></mxCell><mxCell id="152" value="Bianchi" style="shape=partialRectangle;html=1;whiteSpace=wrap;connectable=0;fillColor=none;top=0;left=0;bottom=0;right=0;overflow=hidden;" parent="149" vertex="1"><mxGeometry x="120" width="96" height="20" as="geometry"/></mxCell><mxCell id="153" value="" style="shape=partialRectangle;html=1;whiteSpace=wrap;collapsible=0;dropTarget=0;pointerEvents=0;fillColor=none;top=0;left=0;bottom=0;right=0;points=[[0,0.5],[1,0.5]];portConstraint=eastwest;" parent="144" vertex="1"><mxGeometry y="90" width="215.75" height="20" as="geometry"/></mxCell><mxCell id="154" value="3" style="shape=partialRectangle;html=1;whiteSpace=wrap;connectable=0;fillColor=none;top=0;left=0;bottom=0;right=0;overflow=hidden;" parent="153" vertex="1"><mxGeometry width="60" height="20" as="geometry"/></mxCell><mxCell id="155" value="..." style="shape=partialRectangle;html=1;whiteSpace=wrap;connectable=0;fillColor=none;top=0;left=0;bottom=0;right=0;overflow=hidden;" parent="153" vertex="1"><mxGeometry x="60" width="60" height="20" as="geometry"/></mxCell><mxCell id="156" value="..." style="shape=partialRectangle;html=1;whiteSpace=wrap;connectable=0;fillColor=none;top=0;left=0;bottom=0;right=0;overflow=hidden;" parent="153" vertex="1"><mxGeometry x="120" width="96" height="20" as="geometry"/></mxCell><mxCell id="168" value="*" style="edgeStyle=orthogonalEdgeStyle;curved=0;rounded=1;sketch=0;orthogonalLoop=1;jettySize=auto;html=1;exitX=1;exitY=0.5;exitDx=0;exitDy=0;fontSize=20;endArrow=none;endFill=0;" parent="1" source="166" target="90" edge="1"><mxGeometry relative="1" as="geometry"/></mxCell><mxCell id="166" value="Relationship" style="shape=rhombus;perimeter=rhombusPerimeter;whiteSpace=wrap;html=1;align=center;rounded=0;sketch=0;fontSize=12;" parent="1" vertex="1"><mxGeometry x="545" y="-527" width="120" height="60" as="geometry"/></mxCell><mxCell id="167" value="*" style="edgeStyle=orthogonalEdgeStyle;curved=0;rounded=1;sketch=0;orthogonalLoop=1;jettySize=auto;html=1;exitX=1;exitY=0.5;exitDx=0;exitDy=0;entryX=0;entryY=0.5;entryDx=0;entryDy=0;fontSize=20;endArrow=none;endFill=0;" parent="1" source="157" target="166" edge="1"><mxGeometry relative="1" as="geometry"/></mxCell><mxCell id="169" value="Relationship" style="shape=rhombus;perimeter=rhombusPerimeter;whiteSpace=wrap;html=1;align=center;rounded=0;sketch=0;fontSize=12;" parent="1" vertex="1"><mxGeometry x="803.88" y="-385" width="120" height="60" as="geometry"/></mxCell><mxCell id="198" value="Relationship" style="shape=rhombus;perimeter=rhombusPerimeter;whiteSpace=wrap;html=1;align=center;" parent="1" vertex="1"><mxGeometry x="1027.5" y="-915" width="120" height="60" as="geometry"/></mxCell><mxCell id="199" value="1" style="edgeStyle=orthogonalEdgeStyle;rounded=0;orthogonalLoop=1;jettySize=auto;html=1;entryX=0;entryY=0.5;entryDx=0;entryDy=0;endArrow=none;endFill=0;fontSize=21;" parent="1" target="198" edge="1"><mxGeometry relative="1" as="geometry"><mxPoint x="963" y="-885" as="sourcePoint"/></mxGeometry></mxCell><mxCell id="200" value="1" style="edgeStyle=orthogonalEdgeStyle;rounded=0;orthogonalLoop=1;jettySize=auto;html=1;entryX=1;entryY=0.5;entryDx=0;entryDy=0;endArrow=none;endFill=0;fontSize=20;exitX=0;exitY=0.5;exitDx=0;exitDy=0;" parent="1" target="198" edge="1"><mxGeometry relative="1" as="geometry"><mxPoint x="1216" y="-885" as="sourcePoint"/></mxGeometry></mxCell><mxCell id="214" value="Season Coefficient" style="shape=table;html=1;whiteSpace=wrap;startSize=30;container=1;collapsible=0;childLayout=tableLayout;fixedRows=1;rowLines=0;fontStyle=1;align=center;rounded=0;sketch=0;fontSize=12;fillColor=#60a917;strokeColor=#2D7600;fontColor=#ffffff;" parent="1" vertex="1"><mxGeometry x="293.75" y="-236" width="180" height="150" as="geometry"/></mxCell><mxCell id="215" value="" style="shape=partialRectangle;html=1;whiteSpace=wrap;collapsible=0;dropTarget=0;pointerEvents=0;fillColor=none;top=0;left=0;bottom=1;right=0;points=[[0,0.5],[1,0.5]];portConstraint=eastwest;" parent="214" vertex="1"><mxGeometry y="30" width="180" height="30" as="geometry"/></mxCell><mxCell id="216" value="PK" style="shape=partialRectangle;html=1;whiteSpace=wrap;connectable=0;fillColor=none;top=0;left=0;bottom=0;right=0;overflow=hidden;" parent="215" vertex="1"><mxGeometry width="40" height="30" as="geometry"/></mxCell><mxCell id="217" value="ID" style="shape=partialRectangle;html=1;whiteSpace=wrap;connectable=0;fillColor=none;top=0;left=0;bottom=0;right=0;align=left;spacingLeft=6;overflow=hidden;" parent="215" vertex="1"><mxGeometry x="40" width="140" height="30" as="geometry"/></mxCell><mxCell id="218" value="" style="shape=partialRectangle;html=1;whiteSpace=wrap;collapsible=0;dropTarget=0;pointerEvents=0;fillColor=none;top=0;left=0;bottom=0;right=0;points=[[0,0.5],[1,0.5]];portConstraint=eastwest;" parent="214" vertex="1"><mxGeometry y="60" width="180" height="30" as="geometry"/></mxCell><mxCell id="219" value="1" style="shape=partialRectangle;html=1;whiteSpace=wrap;connectable=0;fillColor=none;top=0;left=0;bottom=0;right=0;overflow=hidden;" parent="218" vertex="1"><mxGeometry width="40" height="30" as="geometry"/></mxCell><mxCell id="220" value="High" style="shape=partialRectangle;html=1;whiteSpace=wrap;connectable=0;fillColor=none;top=0;left=0;bottom=0;right=0;align=left;spacingLeft=6;overflow=hidden;" parent="218" vertex="1"><mxGeometry x="40" width="140" height="30" as="geometry"/></mxCell><mxCell id="221" value="" style="shape=partialRectangle;html=1;whiteSpace=wrap;collapsible=0;dropTarget=0;pointerEvents=0;fillColor=none;top=0;left=0;bottom=0;right=0;points=[[0,0.5],[1,0.5]];portConstraint=eastwest;" parent="214" vertex="1"><mxGeometry y="90" width="180" height="30" as="geometry"/></mxCell><mxCell id="222" value="2" style="shape=partialRectangle;html=1;whiteSpace=wrap;connectable=0;fillColor=none;top=0;left=0;bottom=0;right=0;overflow=hidden;" parent="221" vertex="1"><mxGeometry width="40" height="30" as="geometry"/></mxCell><mxCell id="223" value="Medium" style="shape=partialRectangle;html=1;whiteSpace=wrap;connectable=0;fillColor=none;top=0;left=0;bottom=0;right=0;align=left;spacingLeft=6;overflow=hidden;" parent="221" vertex="1"><mxGeometry x="40" width="140" height="30" as="geometry"/></mxCell><mxCell id="224" value="" style="shape=partialRectangle;html=1;whiteSpace=wrap;collapsible=0;dropTarget=0;pointerEvents=0;fillColor=none;top=0;left=0;bottom=0;right=0;points=[[0,0.5],[1,0.5]];portConstraint=eastwest;" parent="214" vertex="1"><mxGeometry y="120" width="180" height="30" as="geometry"/></mxCell><mxCell id="225" value="3" style="shape=partialRectangle;html=1;whiteSpace=wrap;connectable=0;fillColor=none;top=0;left=0;bottom=0;right=0;overflow=hidden;" parent="224" vertex="1"><mxGeometry width="40" height="30" as="geometry"/></mxCell><mxCell id="226" value="Low" style="shape=partialRectangle;html=1;whiteSpace=wrap;connectable=0;fillColor=none;top=0;left=0;bottom=0;right=0;align=left;spacingLeft=6;overflow=hidden;" parent="224" vertex="1"><mxGeometry x="40" width="140" height="30" as="geometry"/></mxCell><mxCell id="227" value="Base Tariff" style="shape=table;html=1;whiteSpace=wrap;startSize=30;container=1;collapsible=0;childLayout=tableLayout;fixedRows=1;rowLines=0;fontStyle=1;align=center;rounded=0;sketch=0;fontSize=12;fillColor=#d80073;strokeColor=#A50040;fontColor=#ffffff;" parent="1" vertex="1"><mxGeometry x="1216" y="-1020" width="180" height="300" as="geometry"/></mxCell><mxCell id="228" value="" style="shape=partialRectangle;html=1;whiteSpace=wrap;collapsible=0;dropTarget=0;pointerEvents=0;fillColor=none;top=0;left=0;bottom=1;right=0;points=[[0,0.5],[1,0.5]];portConstraint=eastwest;" parent="227" vertex="1"><mxGeometry y="30" width="180" height="30" as="geometry"/></mxCell><mxCell id="229" value="PK" style="shape=partialRectangle;html=1;whiteSpace=wrap;connectable=0;fillColor=none;top=0;left=0;bottom=0;right=0;overflow=hidden;" parent="228" vertex="1"><mxGeometry width="40" height="30" as="geometry"/></mxCell><mxCell id="230" value="ID (prezzo per notte)" style="shape=partialRectangle;html=1;whiteSpace=wrap;connectable=0;fillColor=none;top=0;left=0;bottom=0;right=0;align=left;spacingLeft=6;overflow=hidden;" parent="228" vertex="1"><mxGeometry x="40" width="140" height="30" as="geometry"/></mxCell><mxCell id="231" value="" style="shape=partialRectangle;html=1;whiteSpace=wrap;collapsible=0;dropTarget=0;pointerEvents=0;fillColor=none;top=0;left=0;bottom=0;right=0;points=[[0,0.5],[1,0.5]];portConstraint=eastwest;" parent="227" vertex="1"><mxGeometry y="60" width="180" height="30" as="geometry"/></mxCell><mxCell id="232" value="1" style="shape=partialRectangle;html=1;whiteSpace=wrap;connectable=0;fillColor=none;top=0;left=0;bottom=0;right=0;overflow=hidden;" parent="231" vertex="1"><mxGeometry width="40" height="30" as="geometry"/></mxCell><mxCell id="233" value="20" style="shape=partialRectangle;html=1;whiteSpace=wrap;connectable=0;fillColor=none;top=0;left=0;bottom=0;right=0;align=left;spacingLeft=6;overflow=hidden;" parent="231" vertex="1"><mxGeometry x="40" width="140" height="30" as="geometry"/></mxCell><mxCell id="234" value="" style="shape=partialRectangle;html=1;whiteSpace=wrap;collapsible=0;dropTarget=0;pointerEvents=0;fillColor=none;top=0;left=0;bottom=0;right=0;points=[[0,0.5],[1,0.5]];portConstraint=eastwest;" parent="227" vertex="1"><mxGeometry y="90" width="180" height="30" as="geometry"/></mxCell><mxCell id="235" value="2" style="shape=partialRectangle;html=1;whiteSpace=wrap;connectable=0;fillColor=none;top=0;left=0;bottom=0;right=0;overflow=hidden;" parent="234" vertex="1"><mxGeometry width="40" height="30" as="geometry"/></mxCell><mxCell id="236" value="30" style="shape=partialRectangle;html=1;whiteSpace=wrap;connectable=0;fillColor=none;top=0;left=0;bottom=0;right=0;align=left;spacingLeft=6;overflow=hidden;" parent="234" vertex="1"><mxGeometry x="40" width="140" height="30" as="geometry"/></mxCell><mxCell id="237" value="" style="shape=partialRectangle;html=1;whiteSpace=wrap;collapsible=0;dropTarget=0;pointerEvents=0;fillColor=none;top=0;left=0;bottom=0;right=0;points=[[0,0.5],[1,0.5]];portConstraint=eastwest;" parent="227" vertex="1"><mxGeometry y="120" width="180" height="30" as="geometry"/></mxCell><mxCell id="238" value="3" style="shape=partialRectangle;html=1;whiteSpace=wrap;connectable=0;fillColor=none;top=0;left=0;bottom=0;right=0;overflow=hidden;" parent="237" vertex="1"><mxGeometry width="40" height="30" as="geometry"/></mxCell><mxCell id="239" value="35" style="shape=partialRectangle;html=1;whiteSpace=wrap;connectable=0;fillColor=none;top=0;left=0;bottom=0;right=0;align=left;spacingLeft=6;overflow=hidden;" parent="237" vertex="1"><mxGeometry x="40" width="140" height="30" as="geometry"/></mxCell><mxCell id="240" value="" style="shape=partialRectangle;html=1;whiteSpace=wrap;collapsible=0;dropTarget=0;pointerEvents=0;fillColor=none;top=0;left=0;bottom=0;right=0;points=[[0,0.5],[1,0.5]];portConstraint=eastwest;" parent="227" vertex="1"><mxGeometry y="150" width="180" height="30" as="geometry"/></mxCell><mxCell id="241" value="4" style="shape=partialRectangle;html=1;whiteSpace=wrap;connectable=0;fillColor=none;top=0;left=0;bottom=0;right=0;overflow=hidden;" parent="240" vertex="1"><mxGeometry width="40" height="30" as="geometry"/></mxCell><mxCell id="242" value="38" style="shape=partialRectangle;html=1;whiteSpace=wrap;connectable=0;fillColor=none;top=0;left=0;bottom=0;right=0;align=left;spacingLeft=6;overflow=hidden;" parent="240" vertex="1"><mxGeometry x="40" width="140" height="30" as="geometry"/></mxCell><mxCell id="243" value="" style="shape=partialRectangle;html=1;whiteSpace=wrap;collapsible=0;dropTarget=0;pointerEvents=0;fillColor=none;top=0;left=0;bottom=0;right=0;points=[[0,0.5],[1,0.5]];portConstraint=eastwest;" parent="227" vertex="1"><mxGeometry y="180" width="180" height="30" as="geometry"/></mxCell><mxCell id="244" value="5" style="shape=partialRectangle;html=1;whiteSpace=wrap;connectable=0;fillColor=none;top=0;left=0;bottom=0;right=0;overflow=hidden;" parent="243" vertex="1"><mxGeometry width="40" height="30" as="geometry"/></mxCell><mxCell id="245" value="50" style="shape=partialRectangle;html=1;whiteSpace=wrap;connectable=0;fillColor=none;top=0;left=0;bottom=0;right=0;align=left;spacingLeft=6;overflow=hidden;" parent="243" vertex="1"><mxGeometry x="40" width="140" height="30" as="geometry"/></mxCell><mxCell id="246" value="" style="shape=partialRectangle;html=1;whiteSpace=wrap;collapsible=0;dropTarget=0;pointerEvents=0;fillColor=none;top=0;left=0;bottom=0;right=0;points=[[0,0.5],[1,0.5]];portConstraint=eastwest;" parent="227" vertex="1"><mxGeometry y="210" width="180" height="30" as="geometry"/></mxCell><mxCell id="247" value="6" style="shape=partialRectangle;html=1;whiteSpace=wrap;connectable=0;fillColor=none;top=0;left=0;bottom=0;right=0;overflow=hidden;" parent="246" vertex="1"><mxGeometry width="40" height="30" as="geometry"/></mxCell><mxCell id="248" value="60" style="shape=partialRectangle;html=1;whiteSpace=wrap;connectable=0;fillColor=none;top=0;left=0;bottom=0;right=0;align=left;spacingLeft=6;overflow=hidden;" parent="246" vertex="1"><mxGeometry x="40" width="140" height="30" as="geometry"/></mxCell><mxCell id="249" value="" style="shape=partialRectangle;html=1;whiteSpace=wrap;collapsible=0;dropTarget=0;pointerEvents=0;fillColor=none;top=0;left=0;bottom=0;right=0;points=[[0,0.5],[1,0.5]];portConstraint=eastwest;" parent="227" vertex="1"><mxGeometry y="240" width="180" height="30" as="geometry"/></mxCell><mxCell id="250" value="7" style="shape=partialRectangle;html=1;whiteSpace=wrap;connectable=0;fillColor=none;top=0;left=0;bottom=0;right=0;overflow=hidden;" parent="249" vertex="1"><mxGeometry width="40" height="30" as="geometry"/></mxCell><mxCell id="251" value="100" style="shape=partialRectangle;html=1;whiteSpace=wrap;connectable=0;fillColor=none;top=0;left=0;bottom=0;right=0;align=left;spacingLeft=6;overflow=hidden;" parent="249" vertex="1"><mxGeometry x="40" width="140" height="30" as="geometry"/></mxCell><mxCell id="252" value="" style="shape=partialRectangle;html=1;whiteSpace=wrap;collapsible=0;dropTarget=0;pointerEvents=0;fillColor=none;top=0;left=0;bottom=0;right=0;points=[[0,0.5],[1,0.5]];portConstraint=eastwest;" parent="227" vertex="1"><mxGeometry y="270" width="180" height="30" as="geometry"/></mxCell><mxCell id="253" value="8" style="shape=partialRectangle;html=1;whiteSpace=wrap;connectable=0;fillColor=none;top=0;left=0;bottom=0;right=0;overflow=hidden;" parent="252" vertex="1"><mxGeometry width="40" height="30" as="geometry"/></mxCell><mxCell id="254" value="300" style="shape=partialRectangle;html=1;whiteSpace=wrap;connectable=0;fillColor=none;top=0;left=0;bottom=0;right=0;align=left;spacingLeft=6;overflow=hidden;" parent="252" vertex="1"><mxGeometry x="40" width="140" height="30" as="geometry"/></mxCell><mxCell id="255" value="Relationship" style="shape=rhombus;perimeter=rhombusPerimeter;whiteSpace=wrap;html=1;align=center;rounded=0;sketch=0;fontSize=12;" parent="1" vertex="1"><mxGeometry x="545" y="-191" width="120" height="60" as="geometry"/></mxCell><mxCell id="256" value="*" style="edgeStyle=orthogonalEdgeStyle;curved=0;rounded=1;sketch=0;orthogonalLoop=1;jettySize=auto;html=1;exitX=0;exitY=0.5;exitDx=0;exitDy=0;entryX=1;entryY=0.5;entryDx=0;entryDy=0;endArrow=none;endFill=0;fontSize=20;" parent="1" source="117" target="255" edge="1"><mxGeometry relative="1" as="geometry"/></mxCell><mxCell id="257" value="1" style="edgeStyle=orthogonalEdgeStyle;curved=0;rounded=1;sketch=0;orthogonalLoop=1;jettySize=auto;html=1;exitX=1;exitY=0.5;exitDx=0;exitDy=0;entryX=0;entryY=0.5;entryDx=0;entryDy=0;endArrow=none;endFill=0;fontSize=20;" parent="1" source="218" target="255" edge="1"><mxGeometry relative="1" as="geometry"/></mxCell></root></mxGraphModel></diagram></mxfile>